<?xml version="1.0" encoding="utf-8"?>
<!-- Generator: Adobe Illustrator 26.5.0, SVG Export Plug-In . SVG Version: 6.00 Build 0)  -->
<svg version="1.1" id="Capa_1" xmlns="http://www.w3.org/2000/svg" xmlns:xlink="http://www.w3.org/1999/xlink" x="0px" y="0px"
	 viewBox="0 0 76.33 17.65" style="enable-background:new 0 0 76.33 17.65;" xml:space="preserve">
<style type="text/css">
	.st0{fill:#070706;}
	.st1{fill:#0C0B00;}
	.st2{fill:#050403;}
</style>
<g>
	<path class="st0" d="M5.49,9.13C5.53,8.91,5.57,8.7,5.61,8.48c0.13-0.71,0.26-1.41,0.4-2.17c-1.03-0.01-2-0.03-2.98-0.04
		c0.81-0.01,1.61-0.02,2.42-0.02c0.7,0,0.56-0.01,0.65-0.58C6.25,4.97,6.4,4.26,6.48,3.47c-0.73,0-1.42,0-2.1,0
		c0.59-0.01,1.17-0.02,1.76-0.01c0.28,0,0.4-0.09,0.44-0.37c0.05-0.43,0.15-0.85,0.21-1.28c0.03-0.23,0.13-0.33,0.37-0.33
		c1.9,0.03,3.81-0.1,5.7,0.08c1.8,0.17,3.31,0.93,4.33,2.5c0.36,0.7,0.59,1.43,0.66,2.22c0.05,0.56,0,1.11-0.07,1.66
		c-0.24,1.65-0.95,3.06-2.24,4.14c-1.37,1.14-2.97,1.67-4.73,1.72c-1.52,0.04-3.04,0.02-4.57,0.03c-0.5,0-0.99,0-1.54,0
		c0.15-0.88,0.28-1.69,0.42-2.5C5.26,10.6,5.4,9.87,5.49,9.13z M10.8,10.31c1.73,0.01,3.34-1.73,2.74-3.91
		c-0.23-0.89-0.89-1.28-1.72-1.42c-0.39-0.06-0.79-0.04-1.19-0.04c-0.43,0-0.43,0-0.51,0.45c-0.17,0.95-0.34,1.9-0.51,2.85
		C9.5,8.84,9.39,9.46,9.28,10.07c-0.03,0.19,0,0.3,0.23,0.29C9.94,10.33,10.37,10.4,10.8,10.31z"/>
	<path d="M41.23,2.87c0.08-0.37,0.17-0.74,0.23-1.12c0.03-0.19,0.12-0.27,0.31-0.27c0.03,0,0.07,0,0.1,0
		c1.83,0.03,3.67-0.06,5.5,0.06c0.63,0.04,1.22,0.21,1.8,0.47c0.71,0.32,1.2,0.87,1.57,1.53c0.18,0.58,0.25,1.18,0.21,1.79
		c-0.1,1.57-0.83,2.71-2.31,3.34c-0.35,0.15-0.36,0.15-0.18,0.51c0.65,1.37,1.31,2.74,1.96,4.12c0.07,0.15,0.19,0.29,0.17,0.53
		c-1.21,0-2.41,0-3.62,0c-0.69,0.12-0.99-0.22-1.16-0.86c-0.14-0.56-0.41-1.09-0.62-1.63c-0.22-0.6-0.45-1.2-0.65-1.8
		c-0.07-0.2-0.2-0.2-0.36-0.2c-0.2,0-0.22,0.12-0.24,0.27c-0.02,0.14-0.05,0.27-0.07,0.41c-0.2,1.16-0.41,2.31-0.59,3.47
		c-0.04,0.26-0.13,0.34-0.39,0.34c-0.67-0.01-1.35,0.01-2.02,0.01c-0.48,0-0.96,0-1.48,0c-0.01-0.68,0.17-1.28,0.27-1.88
		c0.35-2.02,0.71-4.04,1.07-6.06c0.02-0.12,0.02-0.24,0.02-0.36C40.98,4.65,41.13,3.76,41.23,2.87z M46.86,6.04
		c0.23-0.76-0.02-1.17-0.77-1.29C45.75,4.7,45.4,4.7,45.06,4.7c-0.13,0-0.23,0.03-0.26,0.18c-0.1,0.6-0.21,1.2-0.32,1.85
		c0.56-0.02,1.07,0.1,1.57-0.11C46.42,6.57,46.71,6.41,46.86,6.04z"/>
	<path d="M30.55,13.82c-0.24-0.01-0.48-0.02-0.73-0.02c-0.41-0.01-0.42-0.01-0.48-0.42c-0.11-0.79-0.22-1.57-0.33-2.36
		c-0.3-2.07-0.6-4.14-0.9-6.21c-0.14-0.99-0.29-1.98-0.43-2.98c-0.05-0.32-0.03-0.35,0.33-0.35c1.19-0.01,2.39-0.01,3.58,0
		c0.39,0,0.39,0.01,0.42,0.41c0.03,0.33,0,0.66,0.12,0.97c-0.01,0.1-0.03,0.21-0.03,0.31c0.12,1.72,0.23,3.44,0.36,5.16
		c0.02,0.26,0.06,0.53,0.11,0.92c0.39-0.81,0.76-1.48,1.03-2.21c0.58-1.19,1.16-2.39,1.75-3.58c0.27-0.56,0.55-1.12,0.81-1.68
		c0.09-0.19,0.2-0.31,0.42-0.3c1.4,0.01,2.8,0.02,4.2,0.02c0.01,0,0.03,0.02,0.08,0.05c-0.1,0.48-0.5,0.83-0.63,1.31
		c-0.16,0.12-0.22,0.31-0.31,0.47c-1.93,3.37-3.86,6.73-5.78,10.11c-0.16,0.27-0.32,0.39-0.64,0.38
		C32.52,13.8,31.53,13.82,30.55,13.82z"/>
	<path d="M55.74,13.82c-0.51,0-1.03,0-1.59,0c0.2-1.13,0.38-2.18,0.56-3.23c0.08-0.48,0.16-0.95,0.26-1.43
		c0.06-0.3,0.01-0.57-0.12-0.85c-0.93-2.04-1.84-4.09-2.76-6.14c-0.09-0.2-0.16-0.4-0.24-0.59c0.13-0.13,0.26-0.1,0.37-0.1
		c1.21,0,2.42,0,3.63,0c0.43,0,0.43,0.01,0.58,0.42c0.12,0.32,0.24,0.65,0.36,0.97c0.21,0.8,0.52,1.57,0.81,2.39
		c0.25-0.31,0.46-0.57,0.59-0.89c0.63-0.78,1.16-1.62,1.72-2.45c0.22-0.32,0.44-0.46,0.84-0.45c1.27,0.03,2.55,0.01,3.82,0.01
		c0.15,0,0.31-0.05,0.47,0.07c-0.28,0.48-0.72,0.83-1,1.3c-0.09,0.1-0.19,0.19-0.28,0.3c-1.4,1.67-2.79,3.35-4.21,5
		c-0.37,0.43-0.55,0.88-0.64,1.43c-0.2,1.26-0.43,2.52-0.65,3.78c-0.08,0.44-0.08,0.44-0.56,0.44
		C57.06,13.81,56.4,13.82,55.74,13.82z"/>
	<path d="M19.95,13.82c-0.26-0.01-0.52-0.01-0.77-0.02c-0.26-0.01-0.51,0.04-0.79-0.05c0.04-0.61,0.19-1.19,0.28-1.78
		c0.1-0.59,0.22-1.18,0.32-1.78C19.01,10.06,19,9.92,19,9.78c0.06-0.26,0.02-0.55,0.14-0.8c0.24-0.67,0.29-1.37,0.41-2.06
		c0.3-1.64,0.58-3.29,0.87-4.93c0.09-0.5,0.1-0.5,0.58-0.5c1.05,0,2.1,0,3.16,0c0.4,0,0.42,0.03,0.35,0.41
		c-0.06,0.32-0.14,0.64-0.15,0.97c-0.04,0.15-0.09,0.3-0.12,0.45c-0.28,1.59-0.57,3.19-0.84,4.78c-0.12,0.74-0.31,1.48-0.37,2.25
		c0.54,0,1.05,0,1.57,0c0.74,0.01,1.48,0.01,2.23,0.02c0.3,0,0.32,0.03,0.27,0.33c-0.06,0.34-0.15,0.67-0.16,1.02
		c-0.15,0.48-0.19,0.98-0.29,1.47c-0.13,0.62-0.12,0.62-0.77,0.62C23.92,13.81,21.93,13.82,19.95,13.82z"/>
	<path d="M63.53,13.83c-0.48-0.09-0.97,0.01-1.46-0.05c-0.06-0.19,0.05-0.34,0.1-0.48c1.22-3.26,2.44-6.52,3.66-9.78
		c0.21-0.55,0.42-1.09,0.61-1.65c0.08-0.24,0.19-0.34,0.43-0.34c0.67,0,1.35-0.05,2.02-0.07c0.31-0.01,0.33,0.02,0.27,0.34
		c-0.04,0.23-0.09,0.46-0.13,0.69c-0.06,0.35-0.06,0.35,0.3,0.42c-0.39,0.07-0.39,0.07-0.47,0.49c-0.04,0.2-0.07,0.4-0.11,0.6
		c-0.57,3.13-1.14,6.26-1.72,9.39c-0.06,0.35-0.07,0.36-0.42,0.37c-0.57,0.01-1.15,0.01-1.72,0.03
		C64.44,13.79,63.98,13.74,63.53,13.83z"/>
	<path class="st1" d="M76.13,8.81c-0.46-0.67-0.92-1.33-1.38-2c-0.07-0.11-0.19-0.2-0.15-0.35c-0.31-0.28-0.56-0.61-0.75-0.98
		c-0.31-0.59-0.75-0.81-1.43-0.74c-0.63,0.07-1.27,0.08-1.9,0.01c-0.22,0.14-0.47,0.09-0.71,0.09c-0.28-0.01-0.39,0.08-0.44,0.36
		c-0.22,1.28-0.47,2.55-0.7,3.82c-0.27,1.48-0.54,2.96-0.81,4.43c-0.01,0.07-0.01,0.13-0.01,0.2c0.18,0.08,0.36,0.05,0.55,0.05
		c0.4-1.44,1.83-2.48,3.35-2.32c1.3,0.14,1.91,1.26,2.14,2.43c0.06,0,0.14,0,0.22,0.01c0.27,0.04,0.55,0.01,0.83,0.04
		c0.31,0.02,0.49-0.1,0.58-0.39c0.04-0.13,0.08-0.26,0.11-0.4c0.24-1.23,0.47-2.47,0.71-3.7C76.36,9.14,76.25,8.98,76.13,8.81z
		 M74.1,9.61c-0.57-0.1-1.16-0.11-1.72-0.29c-0.13,0.01-0.25,0.01-0.35-0.07c-0.4,0.06-0.79-0.06-1.17-0.13
		c-0.23-0.05-0.33-0.18-0.27-0.45c0.12-0.5,0.23-1.01,0.3-1.52c0.04-0.31,0.21-0.41,0.48-0.43c0.48-0.04,0.96-0.09,1.44-0.14
		c0.15-0.02,0.23,0.06,0.28,0.18c0.21,0.47,0.5,0.9,0.64,1.41c0.11,0.09,0.18,0.2,0.18,0.36c0.2,0.22,0.29,0.5,0.42,0.76
		C74.45,9.51,74.35,9.65,74.1,9.61z"/>
	<path class="st2" d="M31.73,15.56c-9.59-0.04-19.18-0.07-28.77-0.11c-0.28,0-0.55,0.01-0.83,0.01c-0.09,0-0.18,0.01-0.26-0.01
		c-0.16-0.04-0.29-0.13-0.28-0.32c0.01-0.18,0.13-0.29,0.3-0.29c0.28-0.01,0.55,0.01,0.83,0.01c7.11,0.03,14.23,0.06,21.34,0.08
		c12.38,0.05,24.76,0.09,37.13,0.14c0.15,0,0.31,0,0.46,0.03c0.12,0.03,0.21,0.12,0.22,0.26c0.01,0.16-0.09,0.26-0.24,0.29
		c-0.13,0.03-0.28,0.02-0.41,0.02c-9.18-0.04-18.35-0.08-27.53-0.12c-0.66,0-1.32,0-1.97,0C31.73,15.57,31.73,15.56,31.73,15.56z"/>
	<path class="st2" d="M3.03,6.27C4.01,6.29,4.98,6.3,6.01,6.31c-0.14,0.76-0.27,1.46-0.4,2.17c-1.01,0-2.02,0-3.09,0
		c0.13-0.73,0.25-1.4,0.38-2.06C2.91,6.34,2.97,6.3,3.03,6.27z"/>
	<path class="st2" d="M4.38,3.47c0.68,0,1.36,0,2.1,0C6.4,4.26,6.25,4.97,6.1,5.68c-0.64,0-1.28-0.01-1.92-0.01
		c-0.26,0-0.32-0.08-0.26-0.34c0.11-0.5,0.18-1.02,0.27-1.53C4.22,3.68,4.23,3.53,4.38,3.47z"/>
	<path class="st2" d="M5.49,9.13C5.4,9.87,5.26,10.6,5.11,11.32c-0.5,0-1,0-1.54,0c0.12-0.69,0.23-1.33,0.34-1.97
		c0.03-0.16,0.11-0.23,0.28-0.22C4.62,9.14,5.05,9.13,5.49,9.13z"/>
	<circle class="st1" cx="71.22" cy="14.1" r="2.28"/>
</g>
</svg>
