<?xml version="1.0" encoding="UTF-8"?>
<svg id="Capa_1" data-name="Capa 1" xmlns="http://www.w3.org/2000/svg" viewBox="0 0 511.92 511.93">
  <defs>
    <style>
      .cls-1 {
        fill: #f9bb49;
      }

      .cls-2 {
        fill: #343434;
      }
    </style>
  </defs>
  <path class="cls-1" d="M272.48,239.45h-2.96c-19.66,15.46-44.4,24.77-71.36,24.77s-51.7-9.31-71.36-24.77H41.29v132.11H355.05V239.45h-82.57Z"/>
  <path class="cls-2" d="M487.16,404.59h-8.26v-90.83h-33.81l-8.26-82.57h-73.53v-74.31h-41.71c.18-2.74,.42-5.47,.42-8.26,0-33.28-13.26-63.47-34.69-85.75l5.79-5.79,14.81,14.81,11.68-11.68-41.28-41.29-11.68,11.68,14.81,14.81-6.33,6.33c-19.13-15.23-42.83-24.84-68.69-26.55v-8.68h24.77V0h-66.06V16.51h24.77v8.68c-25.86,1.72-49.56,11.34-68.69,26.55l-6.33-6.33,14.81-14.81-11.68-11.68-41.29,41.28,11.68,11.68,14.81-14.81,5.79,5.79c-21.43,22.28-34.69,52.47-34.69,85.75,0,2.79,.24,5.52,.42,8.26H33.03v247.71h-8.26c-13.66,0-24.77,11.11-24.77,24.77s11.11,24.77,24.77,24.77h49.54c0,31.86,25.93,57.8,57.8,57.8s57.8-25.93,57.8-57.8h156.88c0,31.86,25.93,57.8,57.8,57.8s57.8-25.93,57.8-57.8h24.77c13.66,0,24.77-11.11,24.77-24.77s-11.11-24.77-24.76-24.77Zm-65.27-156.88l6.61,66.06h-65.19v-66.06h58.58ZM198.17,41.29c59.19,0,107.34,48.15,107.34,107.34s-48.15,107.34-107.34,107.34-107.34-48.16-107.34-107.34,48.15-107.34,107.34-107.34ZM33.03,437.62h-8.26c-4.55,0-8.26-3.7-8.26-8.26s3.71-8.26,8.26-8.26h8.26v16.52Zm99.08,57.8c-22.76,0-41.28-18.52-41.28-41.29s18.52-41.28,41.28-41.28,41.28,18.52,41.28,41.29-18.52,41.28-41.28,41.28Zm55.36-57.8c-7.13-23.85-29.24-41.29-55.36-41.29s-48.24,17.44-55.36,41.29h-27.21V173.4h27.26c11.51,56.46,61.55,99.08,121.36,99.08s109.85-42.62,121.36-99.08h27.26V437.62H187.47Zm217.12,57.8c-22.76,0-41.28-18.52-41.28-41.29s18.52-41.29,41.28-41.29,41.28,18.52,41.28,41.29-18.52,41.29-41.28,41.29Zm57.8-57.8h-2.44c-7.13-23.85-29.24-41.29-55.37-41.29-16.17,0-30.78,6.69-41.28,17.43v-83.49h99.08v107.34h0Zm24.77,0h-8.26v-16.51h8.26c4.55,0,8.26,3.7,8.26,8.26s-3.71,8.26-8.26,8.26Z"/>
  <path class="cls-2" d="M132.11,429.36c-13.66,0-24.77,11.11-24.77,24.77s11.11,24.77,24.77,24.77,24.77-11.11,24.77-24.77c0-13.66-11.11-24.77-24.77-24.77Zm0,33.03c-4.55,0-8.26-3.7-8.26-8.26s3.71-8.26,8.26-8.26,8.26,3.7,8.26,8.26c0,4.56-3.71,8.26-8.26,8.26Z"/>
  <path class="cls-2" d="M404.59,429.36c-13.66,0-24.77,11.11-24.77,24.77s11.11,24.77,24.77,24.77,24.77-11.11,24.77-24.77c0-13.66-11.11-24.77-24.77-24.77Zm0,33.03c-4.55,0-8.26-3.7-8.26-8.26s3.71-8.26,8.26-8.26,8.26,3.7,8.26,8.26c0,4.56-3.71,8.26-8.26,8.26Z"/>
  <path class="cls-2" d="M173.4,148.63c0,13.66,11.11,24.77,24.77,24.77s24.77-11.11,24.77-24.77-11.11-24.77-24.77-24.77c-1.4,0-2.76,.19-4.1,.41l-47.43-55.33-12.54,10.75,45.35,52.9c-3.72,4.34-6.04,9.89-6.04,16.03Zm33.03,0c0,4.55-3.71,8.26-8.26,8.26s-8.26-3.71-8.26-8.26,3.71-8.26,8.26-8.26c4.55,0,8.26,3.71,8.26,8.26Z"/>
  <path class="cls-2" d="M190.64,239.08l1.35-16.46c-38.2-3.15-68.14-35.65-68.14-74,0-18.15,6.69-35.65,18.83-49.31l-12.34-10.97c-14.84,16.68-23.01,38.09-23.01,60.28,0,46.87,36.59,86.61,83.3,90.46Z"/>
</svg>